<?xml version="1.0" encoding="UTF-8" standalone="no"?>
<!DOCTYPE svg PUBLIC "-//W3C//DTD SVG 1.1//EN"
 "http://www.w3.org/Graphics/SVG/1.1/DTD/svg11.dtd">
<!-- Generated by graphviz version 2.44.0 (0)
 -->
<!-- Title: snakemake_dag Pages: 1 -->
<svg width="574pt" height="476pt"
 viewBox="0.00 0.00 573.62 476.00" xmlns="http://www.w3.org/2000/svg" xmlns:xlink="http://www.w3.org/1999/xlink">
<g id="graph0" class="graph" transform="scale(1 1) rotate(0) translate(4 472)">
<title>snakemake_dag</title>
<polygon fill="white" stroke="transparent" points="-4,4 -4,-472 569.62,-472 569.62,4 -4,4"/>
<!-- 0 -->
<g id="node1" class="node">
<title>0</title>
<path fill="none" stroke="#d85656" stroke-width="2" d="M214.62,-108C214.62,-108 184.62,-108 184.62,-108 178.62,-108 172.62,-102 172.62,-96 172.62,-96 172.62,-84 172.62,-84 172.62,-78 178.62,-72 184.62,-72 184.62,-72 214.62,-72 214.62,-72 220.62,-72 226.62,-78 226.62,-84 226.62,-84 226.62,-96 226.62,-96 226.62,-102 220.62,-108 214.62,-108"/>
<text text-anchor="middle" x="199.62" y="-87.5" font-family="sans" font-size="10.00">all</text>
</g>
<!-- 1 -->
<g id="node2" class="node">
<title>1</title>
<path fill="none" stroke="#56d8b9" stroke-width="2" d="M125.62,-396C125.62,-396 93.62,-396 93.62,-396 87.62,-396 81.62,-390 81.62,-384 81.62,-384 81.62,-372 81.62,-372 81.62,-366 87.62,-360 93.62,-360 93.62,-360 125.62,-360 125.62,-360 131.62,-360 137.62,-366 137.62,-372 137.62,-372 137.62,-384 137.62,-384 137.62,-390 131.62,-396 125.62,-396"/>
<text text-anchor="middle" x="109.62" y="-375.5" font-family="sans" font-size="10.00">qc_filter</text>
</g>
<!-- 1&#45;&gt;0 -->
<g id="edge7" class="edge">
<title>1&#45;&gt;0</title>
<path fill="none" stroke="grey" stroke-width="2" d="M84.7,-359.93C46.29,-331.37 -20.27,-271.55 6.62,-216 37.06,-153.1 116.11,-117.77 163.06,-101.72"/>
<polygon fill="grey" stroke="grey" stroke-width="2" points="164.16,-105.05 172.56,-98.59 161.97,-98.4 164.16,-105.05"/>
</g>
<!-- 3 -->
<g id="node4" class="node">
<title>3</title>
<path fill="none" stroke="#56d8d8" stroke-width="2" d="M61.12,-252C61.12,-252 28.12,-252 28.12,-252 22.12,-252 16.12,-246 16.12,-240 16.12,-240 16.12,-228 16.12,-228 16.12,-222 22.12,-216 28.12,-216 28.12,-216 61.12,-216 61.12,-216 67.12,-216 73.12,-222 73.12,-228 73.12,-228 73.12,-240 73.12,-240 73.12,-246 67.12,-252 61.12,-252"/>
<text text-anchor="middle" x="44.62" y="-231.5" font-family="sans" font-size="10.00">qc_plots</text>
</g>
<!-- 1&#45;&gt;3 -->
<g id="edge9" class="edge">
<title>1&#45;&gt;3</title>
<path fill="none" stroke="grey" stroke-width="2" d="M101.78,-359.87C90.6,-335.46 69.99,-290.43 56.81,-261.64"/>
<polygon fill="grey" stroke="grey" stroke-width="2" points="59.83,-259.83 52.49,-252.19 53.47,-262.74 59.83,-259.83"/>
</g>
<!-- 4 -->
<g id="node5" class="node">
<title>4</title>
<path fill="none" stroke="#56b9d8" stroke-width="2" d="M159.62,-252C159.62,-252 103.62,-252 103.62,-252 97.62,-252 91.62,-246 91.62,-240 91.62,-240 91.62,-228 91.62,-228 91.62,-222 97.62,-216 103.62,-216 103.62,-216 159.62,-216 159.62,-216 165.62,-216 171.62,-222 171.62,-228 171.62,-228 171.62,-240 171.62,-240 171.62,-246 165.62,-252 159.62,-252"/>
<text text-anchor="middle" x="131.62" y="-231.5" font-family="sans" font-size="10.00">qc_summary</text>
</g>
<!-- 1&#45;&gt;4 -->
<g id="edge10" class="edge">
<title>1&#45;&gt;4</title>
<path fill="none" stroke="grey" stroke-width="2" d="M112.27,-359.87C116.02,-335.67 122.91,-291.21 127.37,-262.39"/>
<polygon fill="grey" stroke="grey" stroke-width="2" points="130.88,-262.61 128.95,-252.19 123.96,-261.54 130.88,-262.61"/>
</g>
<!-- 5 -->
<g id="node6" class="node">
<title>5</title>
<path fill="none" stroke="#56d87b" stroke-width="2" d="M387.12,-324C387.12,-324 316.12,-324 316.12,-324 310.12,-324 304.12,-318 304.12,-312 304.12,-312 304.12,-300 304.12,-300 304.12,-294 310.12,-288 316.12,-288 316.12,-288 387.12,-288 387.12,-288 393.12,-288 399.12,-294 399.12,-300 399.12,-300 399.12,-312 399.12,-312 399.12,-318 393.12,-324 387.12,-324"/>
<text text-anchor="middle" x="351.62" y="-303.5" font-family="sans" font-size="10.00">process_sample</text>
</g>
<!-- 1&#45;&gt;5 -->
<g id="edge11" class="edge">
<title>1&#45;&gt;5</title>
<path fill="none" stroke="grey" stroke-width="2" d="M137.85,-368.83C175.99,-357.8 244.87,-337.88 294.14,-323.63"/>
<polygon fill="grey" stroke="grey" stroke-width="2" points="295.39,-326.91 304.03,-320.77 293.45,-320.18 295.39,-326.91"/>
</g>
<!-- 2 -->
<g id="node3" class="node">
<title>2</title>
<path fill="none" stroke="#78d856" stroke-width="2" d="M137.12,-468C137.12,-468 82.12,-468 82.12,-468 76.12,-468 70.12,-462 70.12,-456 70.12,-456 70.12,-444 70.12,-444 70.12,-438 76.12,-432 82.12,-432 82.12,-432 137.12,-432 137.12,-432 143.12,-432 149.12,-438 149.12,-444 149.12,-444 149.12,-456 149.12,-456 149.12,-462 143.12,-468 137.12,-468"/>
<text text-anchor="middle" x="109.62" y="-447.5" font-family="sans" font-size="10.00">load_sample</text>
</g>
<!-- 2&#45;&gt;1 -->
<g id="edge8" class="edge">
<title>2&#45;&gt;1</title>
<path fill="none" stroke="grey" stroke-width="2" d="M109.62,-431.7C109.62,-423.98 109.62,-414.71 109.62,-406.11"/>
<polygon fill="grey" stroke="grey" stroke-width="2" points="113.12,-406.1 109.62,-396.1 106.12,-406.1 113.12,-406.1"/>
</g>
<!-- 3&#45;&gt;0 -->
<g id="edge5" class="edge">
<title>3&#45;&gt;0</title>
<path fill="none" stroke="grey" stroke-width="2" d="M61.57,-215.9C79.78,-197.71 109.72,-168.27 136.62,-144 147.53,-134.16 159.83,-123.67 170.65,-114.65"/>
<polygon fill="grey" stroke="grey" stroke-width="2" points="173.13,-117.15 178.59,-108.07 168.66,-111.76 173.13,-117.15"/>
</g>
<!-- 8 -->
<g id="node9" class="node">
<title>8</title>
<path fill="none" stroke="#d87556" stroke-width="2" d="M225.12,-180C225.12,-180 174.12,-180 174.12,-180 168.12,-180 162.12,-174 162.12,-168 162.12,-168 162.12,-156 162.12,-156 162.12,-150 168.12,-144 174.12,-144 174.12,-144 225.12,-144 225.12,-144 231.12,-144 237.12,-150 237.12,-156 237.12,-156 237.12,-168 237.12,-168 237.12,-174 231.12,-180 225.12,-180"/>
<text text-anchor="middle" x="199.62" y="-159.5" font-family="sans" font-size="10.00">build_report</text>
</g>
<!-- 3&#45;&gt;8 -->
<g id="edge17" class="edge">
<title>3&#45;&gt;8</title>
<path fill="none" stroke="grey" stroke-width="2" d="M73.41,-220C95.63,-209.96 126.84,-195.87 152.66,-184.21"/>
<polygon fill="grey" stroke="grey" stroke-width="2" points="154.23,-187.34 161.9,-180.03 151.35,-180.96 154.23,-187.34"/>
</g>
<!-- 4&#45;&gt;0 -->
<g id="edge4" class="edge">
<title>4&#45;&gt;0</title>
<path fill="none" stroke="grey" stroke-width="2" d="M133.16,-215.73C135.38,-197.14 140.63,-167.11 152.62,-144 157.91,-133.8 165.59,-123.99 173.22,-115.64"/>
<polygon fill="grey" stroke="grey" stroke-width="2" points="175.76,-118.06 180.15,-108.41 170.7,-113.22 175.76,-118.06"/>
</g>
<!-- 4&#45;&gt;8 -->
<g id="edge16" class="edge">
<title>4&#45;&gt;8</title>
<path fill="none" stroke="grey" stroke-width="2" d="M148.43,-215.7C156.74,-207.14 166.92,-196.66 176.01,-187.3"/>
<polygon fill="grey" stroke="grey" stroke-width="2" points="178.54,-189.72 183,-180.1 173.52,-184.84 178.54,-189.72"/>
</g>
<!-- 5&#45;&gt;0 -->
<g id="edge2" class="edge">
<title>5&#45;&gt;0</title>
<path fill="none" stroke="grey" stroke-width="2" d="M350.32,-287.73C348.34,-269.14 343.47,-239.11 331.62,-216 309.37,-172.62 265.91,-136.08 234.93,-113.92"/>
<polygon fill="grey" stroke="grey" stroke-width="2" points="236.76,-110.92 226.56,-108.05 232.74,-116.65 236.76,-110.92"/>
</g>
<!-- 6 -->
<g id="node7" class="node">
<title>6</title>
<path fill="none" stroke="#d89556" stroke-width="2" d="M311.12,-252C311.12,-252 240.12,-252 240.12,-252 234.12,-252 228.12,-246 228.12,-240 228.12,-240 228.12,-228 228.12,-228 228.12,-222 234.12,-216 240.12,-216 240.12,-216 311.12,-216 311.12,-216 317.12,-216 323.12,-222 323.12,-228 323.12,-228 323.12,-240 323.12,-240 323.12,-246 317.12,-252 311.12,-252"/>
<text text-anchor="middle" x="275.62" y="-231.5" font-family="sans" font-size="10.00">cluster_markers</text>
</g>
<!-- 5&#45;&gt;6 -->
<g id="edge12" class="edge">
<title>5&#45;&gt;6</title>
<path fill="none" stroke="grey" stroke-width="2" d="M332.83,-287.7C323.44,-279.05 311.93,-268.45 301.7,-259.03"/>
<polygon fill="grey" stroke="grey" stroke-width="2" points="303.91,-256.3 294.19,-252.1 299.17,-261.45 303.91,-256.3"/>
</g>
<!-- 7 -->
<g id="node8" class="node">
<title>7</title>
<path fill="none" stroke="#567bd8" stroke-width="2" d="M447.12,-252C447.12,-252 392.12,-252 392.12,-252 386.12,-252 380.12,-246 380.12,-240 380.12,-240 380.12,-228 380.12,-228 380.12,-222 386.12,-216 392.12,-216 392.12,-216 447.12,-216 447.12,-216 453.12,-216 459.12,-222 459.12,-228 459.12,-228 459.12,-240 459.12,-240 459.12,-246 453.12,-252 447.12,-252"/>
<text text-anchor="middle" x="419.62" y="-231.5" font-family="sans" font-size="10.00">spatial_stats</text>
</g>
<!-- 5&#45;&gt;7 -->
<g id="edge13" class="edge">
<title>5&#45;&gt;7</title>
<path fill="none" stroke="grey" stroke-width="2" d="M368.43,-287.7C376.74,-279.14 386.92,-268.66 396.01,-259.3"/>
<polygon fill="grey" stroke="grey" stroke-width="2" points="398.54,-261.72 403,-252.1 393.52,-256.84 398.54,-261.72"/>
</g>
<!-- 5&#45;&gt;8 -->
<g id="edge14" class="edge">
<title>5&#45;&gt;8</title>
<path fill="none" stroke="grey" stroke-width="2" d="M304.1,-297.63C275.27,-290.68 240.02,-277.36 218.62,-252 204.17,-234.88 199.9,-209.44 198.96,-190.13"/>
<polygon fill="grey" stroke="grey" stroke-width="2" points="202.46,-190.05 198.74,-180.13 195.46,-190.2 202.46,-190.05"/>
</g>
<!-- 10 -->
<g id="node11" class="node">
<title>10</title>
<path fill="none" stroke="#d8b456" stroke-width="2" d="M459.62,-180C459.62,-180 429.62,-180 429.62,-180 423.62,-180 417.62,-174 417.62,-168 417.62,-168 417.62,-156 417.62,-156 417.62,-150 423.62,-144 429.62,-144 429.62,-144 459.62,-144 459.62,-144 465.62,-144 471.62,-150 471.62,-156 471.62,-156 471.62,-168 471.62,-168 471.62,-174 465.62,-180 459.62,-180"/>
<text text-anchor="middle" x="444.62" y="-159.5" font-family="sans" font-size="10.00">impute</text>
</g>
<!-- 5&#45;&gt;10 -->
<g id="edge23" class="edge">
<title>5&#45;&gt;10</title>
<path fill="none" stroke="grey" stroke-width="2" d="M399.41,-296.23C424.58,-288.93 453.33,-275.71 468.62,-252 480.86,-233.02 472.3,-207.91 462.17,-189.2"/>
<polygon fill="grey" stroke="grey" stroke-width="2" points="465.05,-187.2 456.98,-180.33 459,-190.73 465.05,-187.2"/>
</g>
<!-- 11 -->
<g id="node12" class="node">
<title>11</title>
<path fill="none" stroke="#b6d856" stroke-width="2" d="M553.62,-180C553.62,-180 501.62,-180 501.62,-180 495.62,-180 489.62,-174 489.62,-168 489.62,-168 489.62,-156 489.62,-156 489.62,-150 495.62,-144 501.62,-144 501.62,-144 553.62,-144 553.62,-144 559.62,-144 565.62,-150 565.62,-156 565.62,-156 565.62,-168 565.62,-168 565.62,-174 559.62,-180 553.62,-180"/>
<text text-anchor="middle" x="527.62" y="-159.5" font-family="sans" font-size="10.00">impute_scvi</text>
</g>
<!-- 5&#45;&gt;11 -->
<g id="edge25" class="edge">
<title>5&#45;&gt;11</title>
<path fill="none" stroke="grey" stroke-width="2" d="M399.16,-295.47C427.18,-287.77 461.71,-274.42 485.62,-252 503.47,-235.26 514.5,-209.38 520.74,-189.84"/>
<polygon fill="grey" stroke="grey" stroke-width="2" points="524.17,-190.59 523.66,-180.01 517.46,-188.6 524.17,-190.59"/>
</g>
<!-- 6&#45;&gt;0 -->
<g id="edge3" class="edge">
<title>6&#45;&gt;0</title>
<path fill="none" stroke="grey" stroke-width="2" d="M271.93,-215.77C267.48,-197.21 258.9,-167.21 245.62,-144 239.87,-133.96 232.06,-124.08 224.51,-115.62"/>
<polygon fill="grey" stroke="grey" stroke-width="2" points="227.07,-113.24 217.71,-108.28 221.94,-118 227.07,-113.24"/>
</g>
<!-- 6&#45;&gt;8 -->
<g id="edge15" class="edge">
<title>6&#45;&gt;8</title>
<path fill="none" stroke="grey" stroke-width="2" d="M256.83,-215.7C247.44,-207.05 235.93,-196.45 225.7,-187.03"/>
<polygon fill="grey" stroke="grey" stroke-width="2" points="227.91,-184.3 218.19,-180.1 223.17,-189.45 227.91,-184.3"/>
</g>
<!-- 7&#45;&gt;0 -->
<g id="edge6" class="edge">
<title>7&#45;&gt;0</title>
<path fill="none" stroke="grey" stroke-width="2" d="M413.46,-215.7C405.46,-195.63 389.61,-162.9 365.62,-144 327.87,-114.27 273.07,-101.03 236.9,-95.26"/>
<polygon fill="grey" stroke="grey" stroke-width="2" points="237.17,-91.76 226.77,-93.76 236.15,-98.69 237.17,-91.76"/>
</g>
<!-- 7&#45;&gt;8 -->
<g id="edge18" class="edge">
<title>7&#45;&gt;8</title>
<path fill="none" stroke="grey" stroke-width="2" d="M380.03,-220.4C342.74,-208.54 286.82,-190.75 247.13,-178.12"/>
<polygon fill="grey" stroke="grey" stroke-width="2" points="248.01,-174.72 237.41,-175.03 245.88,-181.39 248.01,-174.72"/>
</g>
<!-- 7&#45;&gt;10 -->
<g id="edge22" class="edge">
<title>7&#45;&gt;10</title>
<path fill="none" stroke="grey" stroke-width="2" d="M425.8,-215.7C428.61,-207.81 432.01,-198.3 435.14,-189.55"/>
<polygon fill="grey" stroke="grey" stroke-width="2" points="438.44,-190.7 438.51,-180.1 431.85,-188.34 438.44,-190.7"/>
</g>
<!-- 7&#45;&gt;11 -->
<g id="edge24" class="edge">
<title>7&#45;&gt;11</title>
<path fill="none" stroke="grey" stroke-width="2" d="M446.04,-215.88C460.03,-206.81 477.39,-195.55 492.5,-185.76"/>
<polygon fill="grey" stroke="grey" stroke-width="2" points="494.61,-188.57 501.1,-180.19 490.8,-182.69 494.61,-188.57"/>
</g>
<!-- 8&#45;&gt;0 -->
<g id="edge1" class="edge">
<title>8&#45;&gt;0</title>
<path fill="none" stroke="grey" stroke-width="2" d="M199.62,-143.7C199.62,-135.98 199.62,-126.71 199.62,-118.11"/>
<polygon fill="grey" stroke="grey" stroke-width="2" points="203.12,-118.1 199.62,-108.1 196.12,-118.1 203.12,-118.1"/>
</g>
<!-- 9 -->
<g id="node10" class="node">
<title>9</title>
<path fill="none" stroke="#d6d856" stroke-width="2" d="M507.62,-36C507.62,-36 463.62,-36 463.62,-36 457.62,-36 451.62,-30 451.62,-24 451.62,-24 451.62,-12 451.62,-12 451.62,-6 457.62,0 463.62,0 463.62,0 507.62,0 507.62,0 513.62,0 519.62,-6 519.62,-12 519.62,-12 519.62,-24 519.62,-24 519.62,-30 513.62,-36 507.62,-36"/>
<text text-anchor="middle" x="485.62" y="-15.5" font-family="sans" font-size="10.00">impute_all</text>
</g>
<!-- 10&#45;&gt;9 -->
<g id="edge19" class="edge">
<title>10&#45;&gt;9</title>
<path fill="none" stroke="grey" stroke-width="2" d="M434.55,-143.93C425.08,-125.51 413.84,-95.63 424.62,-72 429.85,-60.53 438.92,-50.58 448.49,-42.5"/>
<polygon fill="grey" stroke="grey" stroke-width="2" points="450.87,-45.09 456.58,-36.16 446.55,-39.58 450.87,-45.09"/>
</g>
<!-- 12 -->
<g id="node13" class="node">
<title>12</title>
<path fill="none" stroke="#97d856" stroke-width="2" d="M525.12,-108C525.12,-108 446.12,-108 446.12,-108 440.12,-108 434.12,-102 434.12,-96 434.12,-96 434.12,-84 434.12,-84 434.12,-78 440.12,-72 446.12,-72 446.12,-72 525.12,-72 525.12,-72 531.12,-72 537.12,-78 537.12,-84 537.12,-84 537.12,-96 537.12,-96 537.12,-102 531.12,-108 525.12,-108"/>
<text text-anchor="middle" x="485.62" y="-87.5" font-family="sans" font-size="10.00">impute_summary</text>
</g>
<!-- 10&#45;&gt;12 -->
<g id="edge26" class="edge">
<title>10&#45;&gt;12</title>
<path fill="none" stroke="grey" stroke-width="2" d="M454.75,-143.7C459.47,-135.64 465.18,-125.89 470.4,-116.98"/>
<polygon fill="grey" stroke="grey" stroke-width="2" points="473.57,-118.5 475.6,-108.1 467.53,-114.96 473.57,-118.5"/>
</g>
<!-- 11&#45;&gt;9 -->
<g id="edge20" class="edge">
<title>11&#45;&gt;9</title>
<path fill="none" stroke="grey" stroke-width="2" d="M537.38,-143.91C546.55,-125.47 557.37,-95.58 546.62,-72 541.39,-60.53 532.32,-50.58 522.74,-42.5"/>
<polygon fill="grey" stroke="grey" stroke-width="2" points="524.69,-39.58 514.66,-36.16 520.37,-45.09 524.69,-39.58"/>
</g>
<!-- 11&#45;&gt;12 -->
<g id="edge27" class="edge">
<title>11&#45;&gt;12</title>
<path fill="none" stroke="grey" stroke-width="2" d="M517.24,-143.7C512.35,-135.56 506.43,-125.69 501.04,-116.7"/>
<polygon fill="grey" stroke="grey" stroke-width="2" points="504.03,-114.88 495.88,-108.1 498.02,-118.48 504.03,-114.88"/>
</g>
<!-- 12&#45;&gt;9 -->
<g id="edge21" class="edge">
<title>12&#45;&gt;9</title>
<path fill="none" stroke="grey" stroke-width="2" d="M485.62,-71.7C485.62,-63.98 485.62,-54.71 485.62,-46.11"/>
<polygon fill="grey" stroke="grey" stroke-width="2" points="489.12,-46.1 485.62,-36.1 482.12,-46.1 489.12,-46.1"/>
</g>
</g>
</svg>
